<svg width="21" height="20" viewBox="0 0 21 20" fill="none" xmlns="http://www.w3.org/2000/svg">
<rect x="4" y="3.5" width="13" height="13" rx="2" fill="#C73E59" fill-opacity="0.9"/>
<path d="M11.1938 6.5L11.0719 10.9811H9.92816L9.80317 6.5H11.1938ZM10.5 13.9811C10.2938 13.9811 10.1167 13.9081 9.96879 13.7623C9.82087 13.6144 9.74796 13.4373 9.75004 13.2311C9.74796 13.0269 9.82087 12.8519 9.96879 12.7061C10.1167 12.5603 10.2938 12.4874 10.5 12.4874C10.6979 12.4874 10.8719 12.5603 11.0219 12.7061C11.1719 12.8519 11.2479 13.0269 11.25 13.2311C11.2479 13.3686 11.2115 13.4946 11.1406 13.6092C11.0719 13.7217 10.9813 13.8123 10.8688 13.8811C10.7563 13.9477 10.6334 13.9811 10.5 13.9811Z" fill="white"/>
</svg>
