<svg width="16" height="16" viewBox="0 0 16 16" fill="none" xmlns="http://www.w3.org/2000/svg">
<path d="M1.88893 10.6784V15.0211C1.88893 15.2884 2.11518 15.3994 2.18557 15.4246C2.25596 15.4549 2.49226 15.5205 2.70342 15.3237L5.98867 12.1666C6.26845 11.8978 6.53846 11.6152 6.74136 11.2846C6.83687 11.1291 6.87646 11.0416 6.87646 11.0416C7.07759 10.633 7.07759 10.2396 6.88143 9.84617C6.58994 9.2611 5.84577 8.66592 4.72454 8.10101L2.80901 9.17031C2.24089 9.49312 1.88893 10.0631 1.88893 10.6784Z" fill="#00378A"/>
<path d="M0 1.01948V5.57403C0 6.14398 0.382115 6.64836 0.925118 6.80976C2.77532 7.3444 5.99809 8.49438 6.77741 10.1841C6.87788 10.406 6.93824 10.6229 6.95848 10.8498C7.47631 9.90665 7.71259 8.82223 7.60199 7.72268C7.4511 6.16415 6.62651 4.74684 5.33948 3.844L0.749142 0.631103C0.668689 0.570577 0.573164 0.540314 0.477639 0.540314C0.397187 0.540314 0.3268 0.555446 0.251388 0.595796C0.100548 0.681541 0 0.837901 0 1.01948Z" fill="#0059FF"/>
<path d="M14.108 10.6784V15.0211C14.108 15.2884 13.8818 15.3994 13.8113 15.4246C13.741 15.4549 13.5046 15.5205 13.2935 15.3237L9.93178 12.0932C9.70296 11.8732 9.48443 11.6406 9.31205 11.3741C9.17554 11.1631 9.12051 11.0416 9.12051 11.0416C8.91938 10.633 8.91938 10.2396 9.11536 9.84617C9.40703 9.2611 10.1512 8.66592 11.2722 8.10101L13.1879 9.17031C13.7611 9.49312 14.108 10.0631 14.108 10.6784Z" fill="#00378A"/>
<path d="M16 1.01916V5.5737C16 6.14365 15.6178 6.64803 15.0747 6.80943C13.2246 7.34407 10.0019 8.49407 9.22257 10.1837C9.12191 10.4057 9.06155 10.6225 9.04149 10.8495C8.52366 9.90634 8.28738 8.82192 8.39798 7.72237C8.54869 6.16382 9.37328 4.74653 10.6605 3.84369L15.2509 0.630781C15.3313 0.570255 15.4268 0.539993 15.5223 0.539993C15.6027 0.539993 15.6732 0.555125 15.7484 0.595476C15.8993 0.68122 16 0.837579 16 1.01916Z" fill="#0059FF"/>
</svg>
